<?xml version="1.0" encoding="UTF-8" standalone="no"?>
<svg
   viewBox="0 0 109 24"
   version="1.1"
   id="svg59"
   sodipodi:docname="logo.svg"
   inkscape:version="1.1 (c68e22c387, 2021-05-23)"
   xmlns:inkscape="http://www.inkscape.org/namespaces/inkscape"
   xmlns:sodipodi="http://sodipodi.sourceforge.net/DTD/sodipodi-0.dtd"
   xmlns="http://www.w3.org/2000/svg"
   xmlns:svg="http://www.w3.org/2000/svg"
   xmlns:figma="http://www.figma.com/figma/ns">
  <sodipodi:namedview
     id="namedview61"
     pagecolor="#ffffff"
     bordercolor="#666666"
     borderopacity="1.0"
     inkscape:pageshadow="2"
     inkscape:pageopacity="0.0"
     inkscape:pagecheckerboard="0"
     showgrid="false"
     inkscape:zoom="10.577982"
     inkscape:cx="54.5"
     inkscape:cy="7.6101474"
     inkscape:window-width="1366"
     inkscape:window-height="745"
     inkscape:window-x="-8"
     inkscape:window-y="-8"
     inkscape:window-maximized="1"
     inkscape:current-layer="g50" />
  <title
     id="title36">Logo</title>
  <g
     transform="translate(-1470)"
     figma:type="canvas"
     id="g50">
    <text
       xml:space="preserve"
       style="font-style:normal;font-weight:normal;font-size:30.6667px;line-height:1.25;font-family:sans-serif;letter-spacing:-2.35px;fill:#216778;fill-opacity:1;stroke:none"
       x="1469.6219"
       y="23.633997"
       id="text1384"><tspan
         sodipodi:role="line"
         id="tspan1382"
         x="1469.6219"
         y="23.633997"
         style="font-style:italic;font-variant:normal;font-weight:bold;font-stretch:condensed;font-size:30.6667px;font-family:'Noto Serif';-inkscape-font-specification:'Noto Serif Bold Italic Condensed';fill:#216778">bitsolto</tspan></text>
    <path
       sodipodi:type="star"
       id="path11761"
       inkscape:flatsided="false"
       sodipodi:sides="17"
       sodipodi:cx="91.699913"
       sodipodi:cy="4.5377278"
       sodipodi:r1="7.4928346"
       sodipodi:r2="3.7464173"
       sodipodi:arg1="2.6271413"
       sodipodi:arg2="2.8119409"
       inkscape:rounded="0"
       inkscape:randomized="0"
       d="M 85.17693,8.2246317 88.155221,5.7504939 84.285549,5.61929 87.956485,4.3881081 84.395519,2.8678773 l 3.8678,0.1780519 -2.771331,-2.70394199 3.542296,1.56323889 -1.607412,-3.522471 2.738386,2.7373018 -0.226405,-3.8652707 1.564642,3.54167684 1.185181,-3.68604414 0.179583,3.86772887 L 95.30496,-2.0308492 94.075232,1.6405735 97.434363,-0.28499452 94.961405,2.694276 98.789297,2.1121955 95.407095,3.9969469 99.18677,4.8369671 95.35211,5.3726532 98.573101,7.5213248 94.803875,6.6355982 97.031171,9.8027312 93.836434,7.6152143 94.769224,11.37307 92.580443,8.1791987 92.09275,12.020257 91.205532,8.2513823 89.363221,11.656888 89.897389,7.8220163 86.949276,10.332037 88.832688,6.9490889 Z"
       transform="matrix(1.2601113,0,0,1.2219179,1452.9922,4.1390816)"
       inkscape:transform-center-x="-0.045601182"
       inkscape:transform-center-y="0.033737782"
       style="fill:#37abc8" />
  </g>
  <defs
     id="defs57">
    <path
       id="b"
       d="M22.735 23.171c.283.323.053.829-.376.829h-5.907c-.285 0-.556-.121-.745-.333l-9.414-10.526v10.36c0 .276-.224.5-.5.5h-5.293c-.276 0-.5-.224-.5-.5v-23c0-.276.224-.5.5-.5h5.293c.276 0 .5.224.5.5v9.815l9.141-9.99c.19-.207.457-.325.738-.325h5.762c.437 0 .664.521.366.841l-9.851 10.563 10.287 11.767z" />
    <path
       id="c"
       d="M45.991 24c-.199 0-.38-.118-.459-.301l-2.024-4.669h-10.67l-2.024 4.669c-.079.183-.259.301-.459.301h-5.212c-.366 0-.608-.381-.453-.712l10.782-23c.082-.176.259-.288.453-.288h4.358c.194 0 .37.112.453.287l10.815 23c.156.332-.086.713-.452.713h-5.108zm-11.135-9.668h6.635l-3.317-7.694-3.317 7.694z" />
    <path
       id="d"
       d="M55.525 24c-.276 0-.5-.224-.5-.5v-23c0-.276.224-.5.5-.5h5.293c.276 0 .5.224.5.5v18.428h9.759c.276 0 .5.224.5.5v4.072c0 .276-.224.5-.5.5h-15.552z" />
    <path
       id="e"
       d="M75.279.5c0-.276.224-.5.5-.5h9.315c2.667 0 4.959.477 6.874 1.43 1.938.953 3.42 2.338 4.446 4.153 1.026 1.793 1.539 3.926 1.539 6.4 0 2.496-.513 4.652-1.539 6.468-1.003 1.793-2.474 3.166-4.412 4.119-1.915.953-4.218 1.43-6.908 1.43h-9.315c-.276 0-.5-.224-.5-.5v-23zm9.37 18.462c2.371 0 4.138-.579 5.301-1.736 1.163-1.157 1.744-2.905 1.744-5.242 0-2.338-.581-4.074-1.744-5.209-1.163-1.157-2.93-1.736-5.301-1.736h-3.078v13.923h3.078z" />
    <path
       id="f"
       d="M102.913 24c-.276 0-.5-.224-.5-.5v-23c0-.276.224-.5.5-.5h5.293c.276 0 .5.224.5.5v23c0 .276-.224.5-.5.5h-5.293z" />
  </defs>
</svg>
